<?xml version="1.0" standalone="no"?>
<!DOCTYPE svg PUBLIC "-//W3C//DTD SVG 20010904//EN"
 "http://www.w3.org/TR/2001/REC-SVG-20010904/DTD/svg10.dtd">
<svg version="1.0" xmlns="http://www.w3.org/2000/svg"
 width="400.000000pt" height="400.000000pt" viewBox="0 0 400.000000 400.000000"
 preserveAspectRatio="xMidYMid meet">

<g transform="translate(0.000000,400.000000) scale(0.100000,-0.100000)"
fill="#000000" stroke="none">
<path d="M686 3985 c-56 -20 -107 -65 -136 -121 l-25 -48 -3 -1796 c-2 -1353
0 -1806 9 -1838 17 -60 60 -116 116 -149 l48 -28 1305 0 1305 0 47 28 c26 15
59 42 72 60 59 77 56 -17 55 1636 l0 1516 -348 375 -347 375 -1030 2 c-854 2
-1036 0 -1068 -12z m1944 -500 c0 -258 2 -311 16 -336 28 -55 55 -59 354 -59
l270 0 0 -1435 0 -1435 -26 -10 c-35 -14 -2453 -14 -2488 0 l-26 10 0 1778 c0
978 3 1782 7 1785 3 4 431 7 950 7 l943 0 0 -305z m484 -152 l30 -33 -152 0
-152 0 0 165 0 164 122 -132 c67 -73 135 -147 152 -164z"/>
<path d="M1043 2885 c-40 -28 -37 -89 6 -122 12 -10 225 -12 917 -13 844 0
903 1 923 18 32 26 37 72 11 105 l-21 27 -908 0 c-783 0 -909 -2 -928 -15z"/>
<path d="M1037 2363 c-8 -10 -19 -30 -22 -45 -6 -22 -1 -33 23 -58 l30 -30
891 0 c631 0 897 3 914 11 24 11 47 47 47 73 0 7 -9 25 -21 40 l-20 26 -913 0
c-857 0 -914 -1 -929 -17z"/>
<path d="M1043 1865 c-40 -28 -37 -89 6 -122 12 -10 225 -12 917 -13 844 0
903 1 923 18 32 26 37 72 11 105 l-21 27 -908 0 c-783 0 -909 -2 -928 -15z"/>
<path d="M1043 1355 c-40 -28 -37 -89 6 -122 12 -10 225 -12 917 -13 844 0
903 1 923 18 11 9 24 31 27 49 5 26 1 37 -19 57 l-26 26 -903 0 c-781 0 -906
-2 -925 -15z"/>
</g>
</svg>
